<?xml version="1.0" encoding="utf-8"?>
<!-- Generator: Adobe Illustrator 25.4.1, SVG Export Plug-In . SVG Version: 6.00 Build 0)  -->
<svg version="1.1" id="Layer_1" xmlns="http://www.w3.org/2000/svg" xmlns:xlink="http://www.w3.org/1999/xlink" x="0px" y="0px"
	 viewBox="0 0 463.3 27" style="enable-background:new 0 0 463.3 27;" xml:space="preserve">
<style type="text/css">
	.st0{fill:#FFFFFF;}
	.st1{fill:none;stroke:#FFFFFF;stroke-width:0.8;}
	.st2{fill:#FFFFFF;stroke:#FFFFFF;stroke-width:0.5;}
</style>
<g>
	<path class="st0" d="M332.3,14.9c0-6.5,2.7-10,7.4-10c4.6,0,7.4,3.5,7.4,10s-2.8,10-7.4,10C335,24.9,332.3,21.4,332.3,14.9z
		 M339.7,8c-2.6,0-4,2.3-4,6.9s1.4,6.9,4,6.9s4-2.3,4-6.9C343.6,10.3,342.3,8,339.7,8z"/>
	<path class="st0" d="M352.9,24.5h-3.3V5.3h6.2c3.6,0,5.7,2.1,5.7,5.9c0,3.7-2.2,5.9-6,5.9h-2.7L352.9,24.5L352.9,24.5z M355.2,14.2
		c1.9,0,2.9-1.1,2.9-2.9c0-2-1.1-3.1-2.9-3.1h-2.3v6C352.9,14.2,355.2,14.2,355.2,14.2z"/>
	<path class="st0" d="M373.7,8.4h-3.9v16.1h-3.3V8.4h-3.9V5.3h11.1L373.7,8.4L373.7,8.4z"/>
	<path class="st0" d="M374.8,14.9c0-6.5,2.7-10,7.4-10c4.6,0,7.4,3.5,7.4,10s-2.8,10-7.4,10C377.5,24.9,374.8,21.4,374.8,14.9z
		 M382.2,8c-2.6,0-4,2.3-4,6.9s1.4,6.9,4,6.9s4-2.3,4-6.9S384.8,8,382.2,8z"/>
	<path class="st0" d="M407.8,5.3v19.2h-3.1V14c0-1.7,0.1-3.5,0.1-5.3c-0.3,1.6-0.7,3.4-1.2,5.3L401,24.5h-2.1L396.3,14
		c-0.5-2-0.9-3.7-1.2-5.3c0.1,1.6,0.1,3.4,0.1,5.3v10.5h-3.1V5.3h4.5l2.6,9.6c0.2,0.6,0.4,1.8,0.7,3.4c0.3-1.9,0.6-3,0.7-3.4
		l2.8-9.6C403.4,5.3,407.8,5.3,407.8,5.3z"/>
	<path class="st0" d="M411.4,5.3h10.2v3.1h-6.9V13h6.9v2.8h-6.9v5.6h6.9v3.1h-10.2V5.3z"/>
	<path class="st0" d="M434.4,8.4h-3.9v16.1h-3.3V8.4h-3.9V5.3h11.1L434.4,8.4L434.4,8.4z"/>
	<path class="st0" d="M436.6,24.5V5.3h6.2c3.6,0,5.7,2.1,5.7,5.9c0,3.2-1.6,5.2-4.4,5.6l5.1,7.7h-3.7l-5.7-8.4v8.4H436.6z
		 M445.2,11.3c0-2-1.1-3.1-2.9-3.1H440v6h2.3C444.1,14.2,445.2,13.1,445.2,11.3z"/>
	<path class="st0" d="M457.3,24.5H454v-7.9l-5.5-11.2h3.5l3.6,7.5l3.2-7.5h3.5l-5,11.2L457.3,24.5L457.3,24.5z"/>
</g>
<line class="st1" x1="326.3" y1="27" x2="326.3" y2="0"/>
<g>
	<path class="st2" d="M5.9,6v11.5c0,1.3,0.2,2.6,0.6,3.3c1.1,2.1,2.9,2.3,3.8,2.3s2.7-0.2,3.8-2.3c0.4-0.8,0.6-2,0.6-3.3V6h1.8v11.5
		c0,1.5-0.2,2.9-0.7,3.8c-1.3,2.8-3.9,3.4-5.6,3.4S5.9,24,4.6,21.3C4.3,20.4,4,19,4,17.5V6H5.9z"/>
	<path class="st2" d="M22.9,6h2.5l10.3,15.3h0.1V6h1.8v18.5h-1.8l-11-16.3l0,0v16.3H23V6H22.9z"/>
	<path class="st2" d="M43.9,6h1.8v18.5h-1.8V6z"/>
	<path class="st2" d="M50.4,6h2L59,22.1L65.5,6h2l-7.7,18.5H58L50.4,6z"/>
	<path class="st2" d="M72,6h10.1v1.7h-8.3v6.6h8V16h-8v6.8h8.3v1.7H72V6z"/>
	<path class="st2" d="M87.9,6h4.7c2.5,0,3.7,0.3,4.5,0.7c2.1,1,3.3,3,3.3,5.3c0,2.7-1.9,5.4-5.5,5.6l5.2,6.9h-2.3l-6.3-8.4
		c2.3,0,3.1,0,4-0.3c2-0.6,3-2.3,3-3.9c0-1.4-0.8-2.9-2-3.5c-1.1-0.6-2-0.7-3.6-0.7h-3.2v16.8h-1.8C87.9,24.5,87.9,6,87.9,6z"/>
	<path class="st2" d="M106.2,19.3c0.1,2.3,1.6,3.8,3.8,3.8c1.9,0,3.7-1.5,3.7-3.7c0-2.8-2.9-3.6-4.1-3.9c-1.7-0.5-4.8-1.2-4.8-4.9
		c0-2.9,2.3-5,5.2-5c3,0,5.1,2.3,5.1,5h-1.8c0-1.9-1.5-3.3-3.3-3.3c-2.1,0-3.3,1.6-3.3,3.2c0,2.2,2,2.8,4.4,3.5
		c4.5,1.2,4.5,4.8,4.5,5.3c0,2.8-2.3,5.4-5.6,5.4c-2.4,0-5.6-1.4-5.7-5.5h1.9V19.3z"/>
	<path class="st2" d="M120.7,6h1.8v18.5h-1.8V6z"/>
	<path class="st2" d="M131.3,7.6h-4.2V6h10.3v1.7h-4.2v16.8h-1.8V7.6H131.3z"/>
	<path class="st2" d="M146.5,18.3L140.1,6h2.1l5.3,10.4L152.8,6h2l-6.5,12.3v6.2h-1.8V18.3z"/>
	<path class="st2" d="M163.8,12.1c3.6,0,6.3,3,6.3,6.3s-2.7,6.3-6.3,6.3c-3.5,0-6.3-3-6.3-6.2C157.5,14.7,160.6,12.1,163.8,12.1z
		 M163.8,23.3c2.3,0,4.8-1.8,4.8-5s-2.7-4.9-4.8-4.9c-2.2,0-4.8,1.8-4.8,5C159.1,21.3,161.4,23.3,163.8,23.3z"/>
	<path class="st2" d="M173.3,13.8h-1.9v-1.4h1.9c0-1.7,0.2-4.5,4.6-4.5v1.4c-3.1,0-3.1,2-3.1,3.1h3.1v1.4h-3.1v10.7h-1.5V13.8z"/>
	<path class="st0" d="M185.8,5.5h4.9v7.1h6.2V5.5h4.9v19h-4.9v-7.6h-6.2v7.6h-4.9V5.5z"/>
	<path class="st0" d="M215.6,5.2c5.9,0,10,4.6,10,9.9s-4.2,9.9-10.1,9.9c-6,0-10-4.8-10-9.6c0-1.3,0.2-2.7,0.7-4.1
		C207.3,8.7,210.3,5.2,215.6,5.2z M215.7,20.6c3.4,0,5.1-3.1,5.1-5.6s-1.7-5.6-5.2-5.6c-3.4,0-5.2,2.9-5.2,5.5
		C210.5,17.9,212.4,20.6,215.7,20.6z"/>
	<path class="st0" d="M234.4,5.5V17c0,1.3,0.1,3.6,2.5,3.6s2.4-2.1,2.4-3.6V5.5h4.9V17c0,3.2-0.7,4.6-1.9,5.8
		c-1.2,1.3-3,2.1-5.3,2.1c-1.4,0-3.9-0.3-5.5-2s-1.9-3.1-1.9-5.9V5.5H234.4z"/>
	<path class="st0" d="M256.2,11.1c-0.1-0.6-0.3-1.8-1.7-1.8c-0.8,0-1.7,0.6-1.7,1.5c0,1.1,0.5,1.4,3.9,2.9c3.5,1.6,4.4,3.2,4.4,5.4
		c0,2.8-1.6,5.8-6.6,5.8c-5.5,0-6.9-3.6-6.9-6v-0.6h4.8c0,2.2,1.4,2.6,2,2.6c1.2,0,1.9-1,1.9-1.8c0-1.3-0.8-1.6-3.7-2.8
		c-1.3-0.5-4.6-1.9-4.6-5.4c0-3.6,3.5-5.6,6.7-5.6c1.9,0,3.9,0.7,5.1,2.2c1.1,1.4,1.2,2.7,1.3,3.8h-4.9V11.1z"/>
	<path class="st0" d="M267.1,9.8h-3.8V5.5h12.3v4.3h-3.7v14.7H267V9.8H267.1z"/>
	<path class="st0" d="M287.7,5.2c5.9,0,10,4.6,10,9.9s-4.2,9.9-10.1,9.9c-6,0-10-4.8-10-9.6c0-1.3,0.2-2.7,0.7-4.1
		C279.4,8.7,282.4,5.2,287.7,5.2z M287.8,20.6c3.4,0,5.1-3.1,5.1-5.6s-1.7-5.6-5.2-5.6c-3.4,0-5.2,2.9-5.2,5.5
		C282.5,17.9,284.5,20.6,287.8,20.6z"/>
	<path class="st0" d="M301.7,5.5h4.2l7.3,11.9l0.1-0.1L313,5.5h4.6v19h-4.2L306.2,13h-0.1l0.1,11.5h-4.6v-19H301.7z"/>
</g>
</svg>
